# xmcd
#
# Track frame offsets: 
#        150
#        17354
#        36995
#        58199
#        75062
#        90918
#        115358
#        129685
#        143478
#        166537
#        183878
#        203354
#
# Disc length: 2893 seconds
#
# Revision: 5
# Processed by: cddbd v1.5.1PL0 Copyright (c) Steve Scherf et al.
# Submitted via: ExactAudioCopy v0.95a3
#
DISCID=810b4b0c
DTITLE=Любэ - Песни о людях
DYEAR=1997
DGENRE=Country
TTITLE0=Там за туманами
TTITLE1=Годы
TTITLE2=Скворцы
TTITLE3=Тянет к людям
TTITLE4=Ишо
TTITLE5=Ребята
TTITLE6=Футбол
TTITLE7=Песня о Друге
TTITLE8=Течёт река Волга
TTITLE9=Главное что есть ты у меня
TTITLE10=Улочки Московские
TTITLE11=Старый барин
EXTD=
EXTT0=
EXTT1=
EXTT2=
EXTT3=
EXTT4=
EXTT5=
EXTT6=
EXTT7=
EXTT8=
EXTT9=
EXTT10=
EXTT11=
PLAYORDER=
